<svg width="466" height="334" viewBox="0 0 466 334" fill="none" xmlns="http://www.w3.org/2000/svg">
  <g>
    <path d="M72.8272 146.476L3.56301 186.414C0.161508 188.374 0.144079 191.557 3.52378 193.517L226.1 322.7C229.48 324.66 234.974 324.66 238.376 322.7L462.408 193.522C465.383 191.806 465.771 189.166 463.564 187.211" stroke="#B8C5D0" stroke-width="1.5" stroke-linecap="round" stroke-linejoin="round"/>
    <path d="M1.00001 189.994C1.00228 190.14 1.01539 190.285 1.03925 190.429V190.49C1.06356 190.638 1.09854 190.783 1.1439 190.926V190.987C1.19162 191.127 1.24844 191.263 1.31398 191.396L1.34891 191.461C1.42212 191.6 1.50364 191.734 1.59309 191.862L1.63669 191.919C1.72507 192.042 1.81969 192.162 1.92016 192.276L1.97685 192.341C2.09959 192.475 2.22914 192.603 2.36498 192.724L2.42604 192.777C2.56559 192.896 2.71095 193.013 2.86213 193.129L2.93192 193.177C3.10635 193.299 3.2851 193.417 3.48134 193.53L226.101 322.699C226.703 323.045 227.341 323.325 228.002 323.536C228.541 323.709 229.09 323.846 229.647 323.945C230.009 324.01 230.379 324.063 230.754 324.098C231.129 324.132 231.395 324.15 231.718 324.163C232.041 324.176 232.311 324.163 232.59 324.163L232.616 333C232.326 333 232.035 333 231.744 333C231.453 333 231.132 332.978 230.78 332.934C230.405 332.895 230.039 332.847 229.673 332.782C229.116 332.683 228.567 332.546 228.029 332.373C227.367 332.162 226.73 331.882 226.127 331.536L3.55113 202.354L3.44647 202.293C3.28948 202.197 3.14557 202.101 3.01038 202.001L2.94059 201.953C2.78069 201.837 2.63533 201.72 2.5045 201.601L2.4435 201.548L2.36498 201.483C2.25159 201.378 2.15131 201.274 2.05101 201.169L1.99431 201.104C1.93762 201.039 1.87656 200.973 1.82423 200.908L1.70648 200.751L1.66288 200.695C1.5931 200.594 1.52766 200.494 1.47097 200.394L1.41864 200.294L1.38377 200.229C1.3302 200.122 1.28219 200.013 1.23988 199.902L1.21369 199.824V199.763C1.17666 199.65 1.1461 199.535 1.12213 199.419C1.12213 199.397 1.12213 199.375 1.12213 199.349V199.288C1.10292 199.167 1.09123 199.045 1.08721 198.922C1.08721 198.896 1.08721 198.87 1.08721 198.848L1.00001 189.994Z" stroke="#B8C5D0" stroke-width="1.5" stroke-linecap="round" stroke-linejoin="round"/>
    <path d="M233.458 324.12C233.749 324.096 234.031 324.064 234.304 324.024C234.577 323.983 234.868 323.934 235.176 323.876C235.484 323.812 235.787 323.738 236.083 323.654C236.445 323.549 236.798 323.431 237.138 323.296C237.57 323.127 237.988 322.926 238.39 322.695L462.41 193.522C463.169 193.112 463.83 192.541 464.346 191.849C464.752 191.297 464.974 190.631 464.983 189.946L465 198.779C465 200.085 464.128 201.37 462.436 202.354L238.403 331.532C237.998 331.763 237.577 331.964 237.143 332.133C236.803 332.268 236.449 332.386 236.087 332.49C235.797 332.575 235.494 332.649 235.18 332.713C234.866 332.776 234.576 332.826 234.308 332.861C234.017 332.901 233.735 332.933 233.462 332.956C233.189 332.98 232.898 332.994 232.59 333L232.564 324.163C232.875 324.16 233.173 324.146 233.458 324.12Z" stroke="#B8C5D0" stroke-width="1.5" stroke-linecap="round" stroke-linejoin="round"/>
    <path d="M463.613 187.154C464.061 187.54 464.41 188.027 464.63 188.575C464.851 189.123 464.936 189.716 464.88 190.304C464.824 190.892 464.627 191.457 464.306 191.954C463.986 192.45 463.551 192.862 463.038 193.156L313.651 279.295C311.643 280.453 309.365 281.062 307.046 281.062C304.727 281.062 302.45 280.453 300.441 279.295L172.724 205.621" stroke="#B8C5D0" stroke-width="1.5" stroke-linecap="round" stroke-linejoin="round"/>
    <path d="M339 117.461L320.083 106.607" stroke="#B8C5D0" stroke-width="1.5" stroke-linecap="round" stroke-linejoin="round"/>
    <path d="M389.827 146.628L360.535 129.821" stroke="#B8C5D0" stroke-width="1.5" stroke-linecap="round" stroke-linejoin="round"/>
    <path d="M258.158 71.0767L233.109 56.6999V1L463.565 133.719V188.94L433.126 171.471" stroke="#B8C5D0" stroke-width="1.5" stroke-linecap="round" stroke-linejoin="round"/>
    <path d="M240.266 54.2782L252.886 61.177C252.937 61.204 252.994 61.2174 253.052 61.2158C253.11 61.2142 253.166 61.1977 253.216 61.1679C253.266 61.1381 253.307 61.096 253.335 61.0457C253.364 60.9954 253.379 60.9386 253.379 60.8808V22.9941C253.379 22.9352 253.364 22.8772 253.335 22.826C253.306 22.7748 253.264 22.7321 253.213 22.7023L240.593 15.3636C240.542 15.3347 240.484 15.3196 240.425 15.32C240.366 15.3203 240.309 15.336 240.258 15.3655C240.207 15.3951 240.165 15.4374 240.136 15.4883C240.106 15.5391 240.091 15.5968 240.091 15.6554V53.982C240.091 54.0425 240.107 54.102 240.137 54.1541C240.168 54.2063 240.212 54.2491 240.266 54.2782V54.2782Z" stroke="#B8C5D0" stroke-width="1.5" stroke-linecap="round" stroke-linejoin="round"/>
    <path d="M241.744 52.9502V18.4955C241.744 18.4368 241.759 18.3791 241.789 18.3283C241.818 18.2774 241.86 18.2351 241.911 18.2056C241.961 18.176 242.019 18.1603 242.078 18.16C242.136 18.1596 242.194 18.1747 242.245 18.2037L251.56 23.6216C251.611 23.6515 251.653 23.6941 251.682 23.7454C251.711 23.7966 251.726 23.8546 251.726 23.9134V58.0372C251.726 58.095 251.711 58.1518 251.682 58.2021C251.654 58.2524 251.613 58.2945 251.563 58.3242C251.514 58.354 251.457 58.3705 251.399 58.3721C251.341 58.3737 251.284 58.3604 251.233 58.3334L241.94 53.2464C241.887 53.2173 241.843 53.1744 241.812 53.1223C241.781 53.0702 241.765 53.0107 241.766 52.9502" stroke="#B8C5D0" stroke-width="1.5" stroke-linecap="round" stroke-linejoin="round"/>
    <path d="M83.334 86.5772L233.109 1L233.135 56.726L131.614 114.49" stroke="#B8C5D0" stroke-width="1.5" stroke-linecap="round" stroke-linejoin="round"/>
    <path d="M433.127 166.161L433.083 181.431C433.083 181.543 433.054 181.653 432.998 181.75C432.942 181.847 432.862 181.928 432.765 181.984L416.839 191.226L416.883 175.59L433.127 166.161Z" stroke="#B8C5D0" stroke-width="1.5" stroke-linecap="round" stroke-linejoin="round"/>
    <path d="M380.199 153.518L380.4 170.29L416.839 191.226L416.883 175.591" stroke="#B8C5D0" stroke-width="1.5" stroke-linecap="round" stroke-linejoin="round"/>
    <path d="M380.194 153.183L380.198 153.518" stroke="#B8C5D0" stroke-width="1.5" stroke-linecap="round" stroke-linejoin="round"/>
    <path d="M433.126 166.162L416.882 175.591L381.149 154.986C380.858 154.818 380.616 154.576 380.447 154.284C380.279 153.993 380.19 153.663 380.19 153.326C380.19 152.99 380.279 152.66 380.447 152.369C380.616 152.077 380.858 151.835 381.149 151.667L394.201 144.071C394.299 144.015 394.409 143.986 394.522 143.986C394.634 143.986 394.745 144.015 394.842 144.071L433.126 166.162Z" stroke="#B8C5D0" stroke-width="1.5" stroke-linecap="round" stroke-linejoin="round"/>
    <path d="M417.471 171.793L425.617 167.076C425.736 167.007 425.832 166.906 425.894 166.784C425.955 166.661 425.981 166.524 425.966 166.388L425.905 165.791L418.33 161.384L408.789 164.276L409.094 166.606C409.107 166.71 409.144 166.809 409.2 166.897C409.257 166.986 409.332 167.06 409.421 167.115L416.878 171.78C416.969 171.834 417.072 171.863 417.177 171.863C417.282 171.863 417.386 171.834 417.476 171.78" stroke="#B8C5D0" stroke-width="1.5" stroke-linecap="round" stroke-linejoin="round"/>
    <path d="M417.301 169.228L425.901 165.791L418.326 161.384L408.785 164.276L417.301 169.228Z" stroke="#B8C5D0" stroke-width="1.5" stroke-linecap="round" stroke-linejoin="round"/>
    <path d="M408.789 164.276L408.732 163.344C408.719 163.146 408.757 162.949 408.844 162.771C408.932 162.593 409.064 162.442 409.229 162.332C409.393 162.222 409.584 162.157 409.782 162.144C409.98 162.132 410.177 162.171 410.355 162.259L416.761 165.469C416.953 165.566 417.114 165.716 417.225 165.901C417.335 166.086 417.391 166.299 417.384 166.514L417.306 169.228L408.789 164.276Z" stroke="#B8C5D0" stroke-width="1.5" stroke-linecap="round" stroke-linejoin="round"/>
    <path d="M416.656 156.793L408.606 161.462L391.86 151.806L399.906 147.137L416.656 156.793Z" stroke="#B8C5D0" stroke-width="1.5" stroke-linecap="round" stroke-linejoin="round"/>
    <path d="M277.433 26.666L279.457 27.8419L260.086 39.0089L260.247 94.5912L258.22 93.4152L258.063 37.8329L277.433 26.666Z" stroke="#B8C5D0" stroke-width="1.5" stroke-linecap="round" stroke-linejoin="round"/>
    <path d="M279.535 55.2018L279.531 53.1548" stroke="#B8C5D0" stroke-width="1.5" stroke-linecap="round" stroke-linejoin="round"/>
    <path d="M279.522 49.8537L279.457 27.842L260.086 39.009L260.247 94.5913L265.402 91.6166" stroke="#B8C5D0" stroke-width="1.5" stroke-linecap="round" stroke-linejoin="round"/>
    <path d="M265.402 92.5312C265.405 93.1818 265.579 93.8202 265.908 94.3821C266.236 94.944 266.707 95.4097 267.272 95.7323" stroke="#B8C5D0" stroke-width="1.5" stroke-linecap="round" stroke-linejoin="round"/>
    <path d="M298.484 65.9378L265.403 47.1185V92.5312" stroke="#B8C5D0" stroke-width="1.5" stroke-linecap="round" stroke-linejoin="round"/>
    <path d="M267.273 95.7277C267.914 96.0761 268.734 95.2922 269.453 95.0962C270.042 94.9358 270.666 94.9582 271.241 95.1604C271.817 95.3627 272.318 95.7353 272.676 96.2286C273.548 97.2521 274.163 98.8853 275.197 99.3383C276.016 99.6954 276.971 99.2599 277.848 99.3383C280.464 99.5473 281.986 104.155 284.594 104.382C285.327 104.447 286.112 104.155 286.809 104.382C287.839 104.743 288.554 106.215 289.504 106.821C290.896 107.692 292.731 106.699 294.022 107.888C294.628 108.445 295.065 109.451 295.662 110.035C296.504 110.854 297.603 110.797 298.61 111.01" stroke="#B8C5D0" stroke-width="1.5" stroke-linecap="round" stroke-linejoin="round"/>
    <path d="M298.493 64.1607L265.019 44.7317C264.901 44.6432 264.81 44.5229 264.758 44.3849C264.705 44.2469 264.693 44.0968 264.723 43.9521C264.76 43.6181 264.871 43.2964 265.047 43.0102C265.223 42.7241 265.461 42.4805 265.743 42.2971L265.839 42.2449C265.936 42.193 266.045 42.1659 266.155 42.1659C266.266 42.1659 266.374 42.193 266.471 42.2449L298.633 60.8855" stroke="#B8C5D0" stroke-width="1.5" stroke-linecap="round" stroke-linejoin="round"/>
    <path d="M298.624 110.997L298.484 61.0987L317.855 49.9274L319.879 51.1033L300.512 62.2746L300.669 117.857L298.641 116.681L298.624 110.997Z" stroke="#B8C5D0" stroke-width="1.5" stroke-linecap="round" stroke-linejoin="round"/>
    <path d="M309.264 112.901L320.04 106.686L319.948 75.785" stroke="#B8C5D0" stroke-width="1.5" stroke-linecap="round" stroke-linejoin="round"/>
    <path d="M319.94 72.3399L319.879 51.1035L300.512 62.2748L300.669 117.857L305.832 114.878" stroke="#B8C5D0" stroke-width="1.5" stroke-linecap="round" stroke-linejoin="round"/>
    <path d="M306.011 116.834C306.114 116.257 306.184 115.676 306.221 115.091C306.334 114.151 306.443 113.972 306.53 114.586C306.617 115.2 306.674 116.485 306.774 116.411C306.886 115.964 306.97 115.51 307.027 115.052C307.28 113.933 307.42 117.696 307.673 116.598C307.727 116.248 307.8 115.9 307.891 115.557C307.991 115.396 308.056 116.511 308.148 116.624C308.24 116.738 308.458 114.861 308.584 115.392C308.641 115.64 308.684 116.424 308.741 116.699C308.872 117.339 309.073 115.27 309.177 116.337C309.177 116.463 309.208 116.633 309.225 116.437C309.243 116.172 309.243 115.906 309.225 115.64V71.3033L305.802 69.1735V114.586C305.802 114.586 305.802 116.764 305.981 116.834" stroke="#B8C5D0" stroke-width="1.5" stroke-linecap="round" stroke-linejoin="round"/>
    <path d="M338.914 86.7387L305.44 67.3097C305.322 67.2211 305.231 67.1008 305.179 66.9628C305.126 66.8248 305.114 66.6747 305.143 66.5301C305.18 66.196 305.291 65.8744 305.468 65.5882C305.644 65.302 305.882 65.0585 306.164 64.8751L306.26 64.8228C306.357 64.771 306.466 64.7438 306.576 64.7438C306.686 64.7438 306.795 64.771 306.892 64.8228L339.734 83.8859" stroke="#B8C5D0" stroke-width="1.5" stroke-linecap="round" stroke-linejoin="round"/>
    <path d="M358.276 73.1935L360.299 74.3695L340.933 85.5365L341.09 141.119L339.062 139.943L338.905 84.3649L358.276 73.1935Z" stroke="#B8C5D0" stroke-width="1.5" stroke-linecap="round" stroke-linejoin="round"/>
    <path d="M340.933 85.5365L341.09 141.119L360.461 129.948L360.299 74.3696L340.933 85.5365Z" stroke="#B8C5D0" stroke-width="1.5" stroke-linecap="round" stroke-linejoin="round"/>
    <path d="M277.016 129.471L232.851 155.106L188.399 129.471L232.563 103.844L277.016 129.471Z" stroke="#B8C5D0" stroke-width="1.5" stroke-linecap="round" stroke-linejoin="round"/>
    <path d="M277.016 129.471L276.954 150L232.79 175.628L232.852 155.105L277.016 129.471Z" stroke="#B8C5D0" stroke-width="1.5" stroke-linecap="round" stroke-linejoin="round"/>
    <path d="M232.852 155.105L232.79 175.628L188.345 150L188.4 129.471L232.852 155.105Z" stroke="#B8C5D0" stroke-width="1.5" stroke-linecap="round" stroke-linejoin="round"/>
    <path d="M183.329 144.354V199.166L172.711 205.647V150.247L183.329 144.354Z" stroke="#B8C5D0" stroke-width="1.5" stroke-linecap="round" stroke-linejoin="round"/>
    <path d="M172.711 150.247L72.8285 92.6746L83.36 86.6251L183.329 144.354L172.711 150.247Z" stroke="#B8C5D0" stroke-width="1.5" stroke-linecap="round" stroke-linejoin="round"/>
    <path d="M72.8285 92.6747V147.939L172.711 205.647V150.247L72.8285 92.6747Z" stroke="#B8C5D0" stroke-width="1.5" stroke-linecap="round" stroke-linejoin="round"/>
    <path d="M165.428 153.078V194.924L108.188 161.331V120.074L165.428 153.078Z" stroke="#B8C5D0" stroke-width="1.5" stroke-linecap="round" stroke-linejoin="round"/>
    <path d="M108.187 120.074L115.025 124.015L115.269 157.203L108.187 161.331V120.074Z" stroke="#B8C5D0" stroke-width="1.5" stroke-linecap="round" stroke-linejoin="round"/>
    <path d="M115.27 157.203L108.188 161.332L165.428 194.924V186.039L115.27 157.203Z" stroke="#B8C5D0" stroke-width="1.5" stroke-linecap="round" stroke-linejoin="round"/>
    <path d="M101.065 116.041L100.982 157.46L80.6173 145.509V104.251L101.065 116.041Z" stroke="#B8C5D0" stroke-width="1.5" stroke-linecap="round" stroke-linejoin="round"/>
    <path d="M80.6169 104.251L87.4503 108.193L87.6989 141.38L80.6169 145.509V104.251Z" stroke="#B8C5D0" stroke-width="1.5" stroke-linecap="round" stroke-linejoin="round"/>
    <path d="M101 149.028L100.982 157.459L80.6172 145.509L87.6992 141.38L101 149.028Z" stroke="#B8C5D0" stroke-width="1.5" stroke-linecap="round" stroke-linejoin="round"/>
    <path opacity="0.2" d="M101.065 116.041L100.982 157.46L80.6173 145.509V104.251L101.065 116.041Z" stroke="#B8C5D0" stroke-width="1.5" stroke-linecap="round" stroke-linejoin="round"/>
    <path d="M139.343 219.588L159.486 218.755L153.826 222.519L157.724 224.795H157.728L222.318 262.467L229.177 266.467L248.972 278.009L255.074 273.955L253.209 289.337L231.711 290.228L236.639 286.949L191.234 260.463L141.493 231.455L135.271 235.593L139.343 219.588Z" fill="none" fill-opacity="0.6" stroke="#B8C5D0" stroke-width="1.5" stroke-linecap="round" stroke-linejoin="round"/>
    <path d="M291.376 212.144L310.934 211.556L309.855 222.87L305.448 220.314L251.599 251.362L241.934 245.749L295.782 214.701L291.376 212.144Z" fill="none" fill-opacity="0.6" stroke="#B8C5D0" stroke-width="1.5" stroke-linecap="round" stroke-linejoin="round"/>
    <path id="storefront" d="M139.343 219.588L159.486 218.755L153.826 222.519L157.724 224.795H157.728L222.318 262.467L229.177 266.467L248.972 278.009L255.074 273.955L253.209 289.337L231.711 290.228L236.639 286.949L191.234 260.463L141.493 231.455L135.271 235.593L139.343 219.588Z" fill="none" fill-opacity="0.6" stroke="#B8C5D0" stroke-width="1.5" stroke-linecap="round" stroke-linejoin="round"/>
    <path id="instore" d="M291.376 212.144L310.934 211.556L309.855 222.87L305.448 220.314L251.599 251.362L241.934 245.749L295.782 214.701L291.376 212.144Z" fill="none" fill-opacity="0.6" stroke="#B8C5D0" stroke-width="1.5" stroke-linecap="round" stroke-linejoin="round"/>
    <path id="fitting" d="M367.207 133.869V67.2619L279.435 17.9105L250.063 36.2016V98.6673L340.944 149.399L367.207 133.869Z" fill="none" fill-opacity="0.6" stroke="none" stroke-width="1.5" stroke-linecap="round" stroke-linejoin="round"/>
    <path id="window" d="M190.281 201.166V141.462L84.1944 80.0312L65.5342 91.7651V150.435L173.003 213.245L190.281 201.166Z" fill="none" fill-opacity="0.6" stroke="none" stroke-width="1.5" stroke-linecap="round" stroke-linejoin="round"/>
    <path id="counter" d="M393.815 137.665L438.392 163.894V184.256L418.004 196.68L375.155 172.522V149.399L393.815 137.665Z" fill="none" fill-opacity="0.6" stroke="none" stroke-width="1.5" stroke-linecap="round" stroke-linejoin="round"/>
    <path id="display" d="M280.975 152.283V126.648L232.965 98.1644L184.006 126.648V152.283L232.965 180.767L280.975 152.283Z" fill="none" fill-opacity="0.6" stroke="none" stroke-width="1.5" stroke-linecap="round" stroke-linejoin="round"/>
    <path id="window-line" d="M110 95 L110 -33" stroke="none" stroke-width="1.5" stroke-dasharray="3 3"/>
    <path id="fitting-line" d="M340 50 L340 -33" stroke="none" stroke-width="1.5" stroke-dasharray="3 3"/>
    <path id="storefront-line" d="M165 374 L165 250" stroke="none" stroke-width="1.5" stroke-dasharray="3 3"/>
    <path id="instore-line" d="M277 374 L277 240" stroke="none" stroke-width="1.5" stroke-dasharray="3 3"/>
    <path id="counter-line" d="M430 263 L430 190" stroke="none" stroke-width="1.5" stroke-dasharray="3 3"/>
  </g>
</svg>